<svg xmlns="http://www.w3.org/2000/svg" viewBox="0 0 98.85 64.34"><defs><style>.cls-1{fill:#b13513;}.cls-2{fill:#3e3e3e;}</style></defs><g id="Ebene_2" data-name="Ebene 2"><g id="Ebene_1-2" data-name="Ebene 1"><path class="cls-1" d="M98.85,49.43a49.26,49.26,0,0,1-2.29,14.91H2.29A49.43,49.43,0,1,1,98.85,49.43Z"/><path class="cls-2" d="M87.79,49.43a38.14,38.14,0,0,1-3,14.91H14.06A38.37,38.37,0,1,1,87.79,49.43Z"/><polygon class="cls-1" points="78.44 45.62 79.5 49.94 58.77 54.99 58.77 54.98 39.83 48.49 20.41 53.23 19.35 48.91 40.05 43.87 40.07 43.88 58.99 50.36 78.44 45.62"/><polygon class="cls-2" points="40.07 43.86 40.07 43.88 40.05 43.87 40.07 43.86"/></g></g></svg>