<svg xmlns="http://www.w3.org/2000/svg" viewBox="0 0 114.57 51.45"><defs><style>.cls-1{fill:#3e3e3e;}</style></defs><g id="Ebene_2" data-name="Ebene 2"><g id="Ebene_1-2" data-name="Ebene 1"><path class="cls-1" d="M112,38.68a9.86,9.86,0,0,1,.84,4,10.6,10.6,0,0,1-5,8.79H7.3a15.11,15.11,0,0,1,5.78-27.91V23.4c0-7.14,7.68-12.93,17.15-12.93a21.33,21.33,0,0,1,8.88,1.87C40.92,5.27,48.1,0,56.68,0A18.5,18.5,0,0,1,72.47,8.2,24,24,0,0,1,84.74,4.94c8.93,0,16.53,4.58,19.33,11a15,15,0,0,1,10.5,14.31A14.85,14.85,0,0,1,112,38.68Z"/></g></g></svg>