<svg xmlns="http://www.w3.org/2000/svg" viewBox="0 0 91.93 30.28"><defs><style>.cls-1{fill:#3e3e3e;}.cls-2{fill:#b13513;}</style></defs><g id="Ebene_2" data-name="Ebene 2"><g id="Ebene_1-2" data-name="Ebene 1"><path class="cls-1" d="M91.93,21.25a60,60,0,0,1-9.55,9H9.55a60,60,0,0,1-9.55-9,60.34,60.34,0,0,1,91.93,0Z"/><path class="cls-2" d="M91.93,21.25a60,60,0,0,1-9.55,9H9.55a60,60,0,0,1-9.55-9,60.34,60.34,0,0,1,91.93,0Z"/><path class="cls-1" d="M61.69,21.25a15.52,15.52,0,0,1-2.86,9H33.1a15.52,15.52,0,0,1-2.86-9,15.73,15.73,0,0,1,31.45,0Z"/><circle class="cls-2" cx="45.96" cy="21.26" r="9.03"/></g></g></svg>