<svg xmlns="http://www.w3.org/2000/svg" viewBox="0 0 104.72 77.01"><defs><style>.cls-1{fill:#3e3e3e;}.cls-2{fill:#b13513;}</style></defs><g id="Ebene_2" data-name="Ebene 2"><g id="Ebene_1-2" data-name="Ebene 1"><rect class="cls-1" width="104.72" height="77.01"/><circle class="cls-2" cx="53.09" cy="33.68" r="33.68"/><circle class="cls-1" cx="53.09" cy="33.68" r="24.93"/><polygon class="cls-2" points="37.08 55.87 27.2 65.75 25.28 67.67 15.94 77.01 3.58 77.01 19.1 61.49 21.02 59.57 26.39 54.2 30.9 49.69 37.08 55.87"/><polygon class="cls-1" points="43.78 77.01 39.94 77.01 21.76 58.83 6.28 43.35 8.19 41.43 23.68 56.91 43.78 77.01"/><polygon class="cls-1" points="38.46 77.01 34.62 77.01 19.1 61.49 3.62 46 5.53 44.09 21.02 59.57 27.2 65.75 38.46 77.01"/><path class="cls-2" d="M59.14,14.91a20.1,20.1,0,0,0-14,10.82H37.08a20.07,20.07,0,0,1,18-11.23A19.84,19.84,0,0,1,59.14,14.91Z"/></g></g></svg>